<svg xmlns="http://www.w3.org/2000/svg" width="800.678" height="651.022" viewBox="0 0 800.678 651.022" xmlns:xlink="http://www.w3.org/1999/xlink" role="img" artist="Katerina Limpitsouni" source="https://undraw.co/">
  <g id="Group_252" data-name="Group 252" transform="translate(-594.972 -249)">
    <path id="Path_3114-1666" data-name="Path 3114" d="M267.628,197.963a5.344,5.344,0,0,0-5.349,5.325l-1.315,571.135a5.344,5.344,0,0,0,5.325,5.35l460.11,1.058a5.344,5.344,0,0,0,5.35-5.326l1.315-571.135a5.344,5.344,0,0,0-5.326-5.349Z" transform="translate(363.091 98.203)" fill="#e6e6e6"/>
    <path id="Path_3115-1667" data-name="Path 3115" d="M283.01,213.264a5.472,5.472,0,0,0-5.477,5.452l-1.26,549.795a5.472,5.472,0,0,0,5.452,5.477l436.119,1a5.471,5.471,0,0,0,5.477-5.452l1.26-549.795a5.471,5.471,0,0,0-5.453-5.477Z" transform="translate(359.483 93.491)" fill="#fff"/>
    <path id="Path_3116-1668" data-name="Path 3116" d="M646.466,423.437l-313.854-.722a8.007,8.007,0,1,1,.037-16.013l313.854.723a8.007,8.007,0,1,1-.037,16.013Z" transform="translate(370.66 123.024)" fill="#e6e6e6"/>
    <path id="Path_3117-1669" data-name="Path 3117" d="M637.67,290.083,429.448,289.6c-2.934-.007-5.3-3.6-5.294-8.019s2.4-8,5.331-7.995l208.222.479c2.934.007,5.3,3.6,5.294,8.019S640.6,290.094,637.67,290.083Z" transform="translate(382.496 107.196)" fill="#e6e6e6"/>
    <path id="Path_3118-1670" data-name="Path 3118" d="M637.575,331.109l-208.222-.479c-2.934-.007-5.3-3.6-5.294-8.019s2.4-8,5.331-7.995l208.222.479c2.934.007,5.3,3.6,5.294,8.019S640.509,331.115,637.575,331.109Z" transform="translate(382.484 112.074)" fill="#e6e6e6"/>
    <path id="Path_3119-1671" data-name="Path 3119" d="M646.356,469.71,332.5,468.989a8.007,8.007,0,1,1,.037-16.013l313.854.722a8.007,8.007,0,0,1,.148,16.013h-.185Z" transform="translate(370.647 128.526)" fill="#e6e6e6"/>
    <path id="Path_3120-1672" data-name="Path 3120" d="M646.256,515.984,332.4,515.261a8.007,8.007,0,1,1,.037-16.013l313.854.723a8.007,8.007,0,1,1,.151,16.013h-.188Z" transform="translate(370.636 134.028)" fill="#e6e6e6"/>
    <path id="Path_3121-1673" data-name="Path 3121" d="M646.147,562.258l-313.854-.723a8.007,8.007,0,1,1,.037-16.013l313.854.723a8.007,8.007,0,0,1,.151,16.013h-.188Z" transform="translate(370.623 139.531)" fill="#e6e6e6"/>
    <path id="Path_3122-1674" data-name="Path 3122" d="M491.631,606.531l-159.445-.723a8.007,8.007,0,1,1,.037-16.013l159.445.724a8.007,8.007,0,1,1,.151,16.013Z" transform="translate(370.61 144.795)" fill="#e6e6e6"/>
    <path id="Path_3123-1675" data-name="Path 3123" d="M491.525,652.8l-159.445-.723a8.007,8.007,0,1,1,.037-16.013l159.445.723a8.007,8.007,0,1,1,.151,16.013h-.188Z" transform="translate(370.597 150.298)" fill="#e6e6e6"/>
    <path id="Path_3124-1676" data-name="Path 3124" d="M420.361,421.217" transform="translate(382.044 124.75)" fill="#e6e6e6"/>
    <path id="Path_3125-1677" data-name="Path 3125" d="M572.761,260.63V209.52a28.916,28.916,0,1,0-57.818-1.272h6.363a22.584,22.584,0,0,1,22.533-21.7h.331a22.6,22.6,0,0,1,22.23,22.928v51.566a15.147,15.147,0,0,1-15.125,14.946h-.186a15.154,15.154,0,0,1-14.942-15.352l.035-50.766a7.62,7.62,0,1,1,15.241-.05v14.749a3.181,3.181,0,1,0,6.363,0v-14.8a13.981,13.981,0,1,0-27.962.048l-.033,50.778a21.514,21.514,0,0,0,21.227,21.75h.265A21.52,21.52,0,0,0,572.766,261.1C572.762,260.935,572.762,260.769,572.761,260.63Z" transform="translate(501.29 69.033)" fill="#6c63ff"/>
    <path id="Path_4426-1678" data-name="Path 4426" d="M622.714,626.467a52.7,52.7,0,0,1-3.321,18.478,51.255,51.255,0,0,1-3.671,7.826,52.94,52.94,0,0,1-91.864,0q-.7-1.22-1.335-2.477a52.928,52.928,0,1,1,100.19-23.827Z" transform="translate(393.519 142.862)" fill="#e4e4e4"/>
    <path id="Path_4428-1679" data-name="Path 4428" d="M410.714,305.467a52.7,52.7,0,0,1-3.321,18.478,51.254,51.254,0,0,1-3.671,7.826,52.94,52.94,0,0,1-91.863,0q-.7-1.22-1.335-2.477a52.928,52.928,0,1,1,100.19-23.827Z" transform="translate(368.31 104.692)" fill="#e4e4e4"/>
    <circle id="Ellipse_773" data-name="Ellipse 773" cx="10.118" cy="10.118" r="10.118" transform="translate(715.977 394.045)" fill="#090814"/>
    <path id="Path_4429-1680" data-name="Path 4429" d="M309.922,325.047c4.458-4.818,10.417-12.466,16.007-6.94,2.805,2.607,7.2,9.067,11.4,4.844l32.816-32.816a6.515,6.515,0,0,1,9.317.167l27.331,29.4a51.269,51.269,0,0,1-3.671,7.826H311.257Z" transform="translate(368.912 108.94)" fill="#6c63ff"/>
    <ellipse id="Ellipse_774" data-name="Ellipse 774" cx="7.506" cy="7.506" rx="7.506" ry="7.506" transform="translate(1045.146 322.996)" fill="#6c63ff"/>
    <path id="Path_4431-1681" data-name="Path 4431" d="M914.283,484.477q-.468,0-.937-.027l-30.116-1.7-.815-1.829.57-.255,62.64-27.893.816,1.83-19.164,23.68a16.754,16.754,0,0,1-12.993,6.2Z" transform="translate(436.987 145.285)" fill="#6c63ff"/>
    <rect id="Rectangle_462" data-name="Rectangle 462" width="800.678" height="2.238" transform="translate(594.972 876.796)" fill="#ccc"/>
    <path id="Path_4422-1682" data-name="Path 4422" d="M637.2,252.815l-81.68-10.07,4.476-71.61h77.2Z" transform="translate(653.169 313.163)" fill="#ffb9b9"/>
    <path id="Path_4423-1683" data-name="Path 4423" d="M901.845,514.414a7.331,7.331,0,0,1-6.72-4.433l-12.645-29.5,37.481.13,25.753-27.234,12.35,28.837a7.339,7.339,0,0,1-3.749,9.556l-49.5,22.011A7.288,7.288,0,0,1,901.845,514.414Z" transform="translate(437.003 145.435)" fill="#6c63ff"/>
    <path id="Path_4424-1684" data-name="Path 4424" d="M914.283,484.477q-.468,0-.937-.027l-30.116-1.7-.815-1.829.57-.255,62.64-27.893.816,1.83-19.164,23.68a16.754,16.754,0,0,1-12.993,6.2Z" transform="translate(436.987 145.285)" fill="#090814" opacity="0.242"/>
    <path id="Path_3126-1685" data-name="Path 3126" d="M874.518,267l-79.75,1a5.653,5.653,0,0,1-5.646-5.646V236a42.034,42.034,0,1,1,84.068,0l6.975,25.353A5.652,5.652,0,0,1,874.519,267Z" transform="translate(425.894 112.791)" fill="#090814"/>
    <path id="Path_3127-1686" data-name="Path 3127" d="M901.735,475a12.244,12.244,0,0,1,.723-18.761L888.583,415l21.86,5.777,9.827,38.275A12.308,12.308,0,0,1,901.735,475Z" transform="translate(437.721 140.794)" fill="#ffb6b6"/>
    <path id="Path_3128-1687" data-name="Path 3128" d="M820.185,712.826,801.2,710.171l2.848-64.4,28.025,3.916Z" transform="translate(424.773 168.183)" fill="#ffb9b9"/>
    <path id="Path_3130-1688" data-name="Path 3130" d="M902.711,683.886l-17.061,7.751-45.19-59.049,25.18-11.44Z" transform="translate(429.76 163.494)" fill="#ffb9b9"/>
    <circle id="Ellipse_597" data-name="Ellipse 597" cx="29.11" cy="29.11" r="29.11" transform="translate(1227.591 322.293)" fill="#ffb9b9"/>
    <path id="Path_3132-1689" data-name="Path 3132" d="M855.449,687.916,787.275,514.078c-24.4-66.648-2.6-112.582-2.375-113.038l.112-.224.233-.085c2.8,10.9,66.275,10.154,80.821-6.629,8.49,7.132,19.79,23.924,22.211,43.991a158.3,158.3,0,0,1-5.637,64.1l-26.854,91.035,33.224,74.845Z" transform="translate(424.301 138.309)" fill="#090814"/>
    <path id="Path_3133-1690" data-name="Path 3133" d="M820.211,560.322,795.6,685.143l32.784,6.182,20.627-108.044Z" transform="translate(426.663 158.074)" fill="#090814"/>
    <path id="Path_1103-1691" data-name="Path 1103" d="M879.433,399.7s-.513,21.031,1.539,21.543-28.212,8.72-28.212,8.72l-3.078-28.725Z" transform="translate(391.861 -25.805)" fill="#ffb9b9"/>
    <path id="Path_4425-1692" data-name="Path 4425" d="M785.758,382.284c5.244,1.4,57.086,22.763,81.68,1.119l19.3-95.291-23.123-7.293-8.069-9.812a9.164,9.164,0,0,0-7.214-3.348l-28.685.384a9.208,9.208,0,0,0-6.714,3.051l-9.188,10.247-20.754,4.83Z" transform="translate(425.165 123.274)" fill="#6c63ff"/>
    <path id="Path_3135-1693" data-name="Path 3135" d="M868.624,293.47l6.284-8.368s11.513,3.025,17.363,19.524,29.817,148.314,29.817,148.314l-25.81,11.983-34.951-116.5Z" transform="translate(434.479 125.348)" fill="#6c63ff"/>
    <path id="Path_3136-1694" data-name="Path 3136" d="M683.019,437.626a12.244,12.244,0,0,1,15.9-9.981l26.233-34.713,7.555,21.311-26.071,29.7a12.308,12.308,0,0,1-23.62-6.314Z" transform="translate(413.261 138.17)" fill="#ffb6b6"/>
    <path id="Path_3137-1695" data-name="Path 3137" d="M802.3,291.742l-8.692-7.64s-9.105,2.3-14.955,18.8-80.514,127.108-80.514,127.108l25.81,11.983,85.65-95.3Z" transform="translate(415.075 125.229)" fill="#6c63ff"/>
    <path id="Path_3159-1696" data-name="Path 3159" d="M860.154,236.185H819.467a3.141,3.141,0,0,1-3.113-2.748l-.527-4.214a1.882,1.882,0,0,0-3.573-.559l-2.669,5.711a3.149,3.149,0,0,1-2.842,1.809h-6.18a3.133,3.133,0,0,1-3.138-3.128q0-.154.015-.308l2.437-25.454a3.161,3.161,0,0,1,1.79-2.554c18.633-8.7,37.529-8.687,56.163.034a3.142,3.142,0,0,1,1.775,2.408l3.651,25.42a3.133,3.133,0,0,1-3.1,3.581Z" transform="translate(426.881 113.298)" fill="#2f2e41"/>
    <path id="Path_3858-1697" data-name="Path 3858" d="M54.056,0s9.425,23.568,2.019,27.607-17.511.67-25.587,4.038S.192,26.936.192,26.936s-2.7-7.406,12.115-9.426c0,0,16.119-12.124,16.119-14.813S37.852,0,37.852,0Z" transform="matrix(0.998, 0.07, -0.07, 0.998, 1194.635, 863.525)" fill="#090814"/>
    <path id="Path_4430-1698" data-name="Path 4430" d="M54.056,0s9.425,23.568,2.019,27.607-17.511.67-25.587,4.038S.192,26.936.192,26.936s-2.7-7.406,12.115-9.426c0,0,16.119-12.124,16.119-14.813S37.852,0,37.852,0Z" transform="translate(1282.666 852.664) rotate(-6)" fill="#090814"/>
  </g>
</svg>